<svg width="96" height="96" viewBox="0 0 96 96" fill="none" xmlns="http://www.w3.org/2000/svg">
<path d="M90.5186 59.7369C87.849 60.2786 84.5833 60.3296 83.7364 60.3335C83.6906 55.7443 79.9466 52.0235 75.3471 52.0235C70.7464 52.0235 67.0029 55.7443 66.957 60.3335H27.1033C27.0579 55.7443 23.3139 52.0235 18.714 52.0235C14.5791 52.0235 11.1412 55.0316 10.4537 58.9723L3.83229 56.7523C3.80829 56.7446 3.78386 56.7369 3.75943 56.7305C2.81057 56.4858 2.14715 55.6308 2.14629 54.651L2.14286 50.9953C2.14243 50.3238 2.46172 49.6818 2.99829 49.2776L3.48258 48.912C3.57901 48.8392 3.66086 48.7505 3.72686 48.6515C3.85286 48.6433 3.98014 48.618 4.10186 48.5623C8.00529 46.791 10.0131 40.5759 10.0967 40.3123C10.2137 39.9433 10.1224 39.5405 9.85886 39.2576L7.14858 36.3532C7.09501 36.2962 7.03586 36.2465 6.97372 36.204C7.29557 35.7635 7.72372 35.4052 8.23501 35.1708C12.1796 33.3635 21.3883 29.1429 37.8879 29.1429C37.968 29.1429 38.0499 29.1433 38.1304 29.1433C52.2043 29.1433 62.3687 34.9946 69.7911 39.2666C70.6144 39.7406 71.4052 40.1958 72.1659 40.623C72.2533 40.6723 72.3476 40.7092 72.4449 40.7319C78.0039 42.0416 82.0757 43.1028 85.0333 44.2968C84.6407 44.2955 84.2417 44.2942 83.8401 44.2929H83.832C82.6869 44.2929 81.7213 45.0746 81.4834 46.1958C81.2447 47.3199 81.813 48.4286 82.8681 48.8936L82.9037 48.909C84.1166 49.4426 85.3954 49.8133 86.7047 50.01C89.4849 50.427 90.9694 50.6499 91.7923 50.7613C92.1604 52.101 92.3096 53.6679 92.3096 55.551C92.3096 57.2953 91.9989 59.4369 90.5186 59.7369ZM75.3471 66.6682C71.9001 66.6682 69.096 63.864 69.096 60.417C69.096 56.9705 71.9001 54.1663 75.3471 54.1663C78.7937 54.1663 81.5979 56.9705 81.5979 60.417C81.5979 63.864 78.7937 66.6682 75.3471 66.6682ZM18.714 66.6682C15.267 66.6682 12.4629 63.864 12.4629 60.417C12.4629 56.9705 15.267 54.1663 18.714 54.1663C22.1606 54.1663 24.9647 56.9705 24.9647 60.417C24.9647 63.864 22.1606 66.6682 18.714 66.6682ZM6.04758 38.3156L7.85058 40.2468C7.24886 41.8543 5.87529 44.7348 4.03801 46.1156L6.04758 38.3156ZM90.7744 48.453C89.7039 48.2928 88.3337 48.0875 87.0227 47.8903C85.9011 47.7223 84.8062 47.4056 83.7639 46.9462L83.7283 46.9308C83.6756 46.9076 83.5359 46.8463 83.5796 46.6406C83.6216 46.4418 83.7664 46.4358 83.8277 46.4358H83.8333C85.8613 46.4422 87.8601 46.4482 88.9586 46.449C89.6653 46.9963 90.2854 47.6846 90.7744 48.453ZM93.6292 49.5138C93.6249 49.4992 93.624 49.4838 93.6189 49.4692C93.4787 49.0496 93.3013 48.6399 93.102 48.2396C93.0943 48.2238 93.087 48.2075 93.0793 48.1912C92.9961 48.0275 92.9074 47.8672 92.8157 47.7078C92.7793 47.6443 92.7442 47.5805 92.7064 47.5179C92.616 47.3675 92.52 47.2209 92.421 47.0748C92.3914 47.0306 92.3614 46.9865 92.331 46.9423C91.6684 45.9943 90.852 45.1526 89.9276 44.5016C89.8599 44.454 89.7861 44.4176 89.7103 44.3872C86.379 42.0506 81.0686 40.5648 73.0839 38.6808C72.3699 38.2788 71.6293 37.8523 70.86 37.4092C63.2284 33.0168 52.7769 27.0005 38.133 27.0005C38.0524 27.0005 37.9736 27 37.8934 27C20.9229 27 11.064 31.5172 7.34229 33.2229C5.83415 33.9142 4.74301 35.2376 4.34744 36.8645L1.88229 47.4352L1.70786 47.5668C0.637288 48.3733 -0.00128378 49.656 1.93782e-06 50.9966L0.00343517 54.6528C0.00514945 56.5959 1.31143 58.2935 3.18472 58.7953L10.3599 61.2009C10.7571 65.4626 14.3499 68.811 18.714 68.811C22.6307 68.811 25.92 66.1106 26.8414 62.4763H67.2193C68.1407 66.1106 71.43 68.811 75.3471 68.811C79.2634 68.811 82.5527 66.1106 83.4741 62.4763H83.5149C83.5312 62.4763 83.5826 62.4767 83.6661 62.4767C84.4432 62.4767 87.9656 62.4416 90.9442 61.8369C92.5449 61.5129 94.4524 60.159 94.4524 55.551C94.4524 53.1528 94.1974 51.1775 93.6292 49.5138Z" fill="#191919"/>
<path d="M75.3444 62.6237C74.1226 62.6237 73.1287 61.6299 73.1287 60.408C73.1287 59.1862 74.1226 58.1923 75.3444 58.1923C76.5663 58.1923 77.5601 59.1862 77.5601 60.408C77.5601 61.6299 76.5663 62.6237 75.3444 62.6237ZM75.3444 56.0495C72.9414 56.0495 70.9858 58.005 70.9858 60.408C70.9858 62.811 72.9414 64.7666 75.3444 64.7666C77.7474 64.7666 79.703 62.811 79.703 60.408C79.703 58.005 77.7474 56.0495 75.3444 56.0495Z" fill="#DA291C"/>
<path d="M18.7115 62.6237C17.4893 62.6237 16.4954 61.6299 16.4954 60.408C16.4954 59.1862 17.4893 58.1923 18.7115 58.1923C19.9334 58.1923 20.9273 59.1862 20.9273 60.408C20.9273 61.6299 19.9334 62.6237 18.7115 62.6237ZM18.7115 56.0495C16.3081 56.0495 14.3525 58.005 14.3525 60.408C14.3525 62.811 16.3081 64.7666 18.7115 64.7666C21.1145 64.7666 23.0701 62.811 23.0701 60.408C23.0701 58.005 21.1145 56.0495 18.7115 56.0495Z" fill="#DA291C"/>
<path d="M24.2835 39.8482C23.203 39.6181 22.2563 38.9924 21.6165 38.0855L19.2657 34.7525C22.9412 33.8354 27.703 32.9568 34.8572 32.6885L36.0002 41.4875C31.792 41.3281 26.9419 40.4135 24.2835 39.8482ZM38.0273 43.2905C38.2309 43.0586 38.3252 42.7509 38.2853 42.4454L36.8569 31.4469C36.7862 30.9014 36.3092 30.4899 35.7632 30.5144C28.6403 30.7201 23.0946 31.4846 17.2189 33.0712C16.8812 33.1621 16.609 33.4128 16.4899 33.7419C16.3712 34.0711 16.4205 34.4375 16.6223 34.7234L19.8653 39.3206C20.8167 40.6694 22.2272 41.6011 23.8373 41.9444C26.8407 42.5829 32.5729 43.6548 37.2225 43.6548C37.5306 43.6548 37.8242 43.5219 38.0273 43.2905Z" fill="#191919"/>
<path d="M62.6436 54.0324H31.0656C30.4737 54.0324 29.9941 54.512 29.9941 55.1039C29.9941 55.6957 30.4737 56.1753 31.0656 56.1753H62.6436C63.2354 56.1753 63.715 55.6957 63.715 55.1039C63.715 54.512 63.2354 54.0324 62.6436 54.0324Z" fill="#191919"/>
<path d="M67.0369 43.3878C67.0369 43.7465 66.745 44.0388 66.3863 44.0388H65.194V43.4362V41.4189H66.3863C66.745 41.4189 67.0369 41.7112 67.0369 42.0699V43.3878ZM42.2543 41.5214L41.107 32.7074C49.2889 33.0412 57.5166 36.6228 63.0512 39.6198V40.3475V41.5226L42.2543 41.5214ZM66.862 39.3198C61.165 35.9302 50.4435 30.5396 39.8843 30.5396C39.5758 30.5396 39.2826 30.6721 39.0795 30.9039C38.8759 31.1354 38.7816 31.4435 38.8215 31.7491L40.2503 42.7308C40.3198 43.2648 40.7749 43.6642 41.3132 43.6642L63.0512 43.6655V45.1102C63.0512 45.7016 63.5307 46.1816 64.1226 46.1816H66.3863C67.9266 46.1816 69.1797 44.9285 69.1797 43.3878V42.0699C69.1797 40.6916 68.176 39.5465 66.862 39.3198Z" fill="#191919"/>
</svg>
