<svg width="96" height="96" viewBox="0 0 96 96" fill="none" xmlns="http://www.w3.org/2000/svg">
<path d="M55.387 58.2082H44.065V50.7708H49.3986H55.387V58.2082ZM25.3386 48.6279C24.3134 45.9305 21.9841 43.8742 19.1196 43.2404V41.1901H20.6371C20.653 41.1909 20.6684 41.1948 20.6847 41.1948H40.0159C40.0321 41.1948 40.0476 41.1909 40.0639 41.1901H46.4179C46.4337 41.1909 46.4491 41.1948 46.4654 41.1948H48.3271V48.6279H42.9936H25.3386ZM25.9086 51.6909C25.9086 51.3798 25.8901 51.0734 25.8584 50.7708H41.9221V58.2082H22.933C24.7523 56.6195 25.9086 54.2898 25.9086 51.6909ZM15.589 57.9858C17.2656 56.4056 18.3199 54.1715 18.3199 51.6909C18.3199 49.2104 17.2656 46.9762 15.589 45.3961C16.1196 45.2559 16.6741 45.1736 17.2484 45.1736C20.842 45.1736 23.7657 48.0974 23.7657 51.6909C23.7657 55.2845 20.842 58.2082 17.2484 58.2082C16.6741 58.2082 16.1196 58.1264 15.589 57.9858ZM9.65971 58.2082C6.06614 58.2082 3.14286 55.2845 3.14286 51.6909C3.14286 48.0974 6.06614 45.1736 9.65971 45.1736C13.2533 45.1736 16.177 48.0974 16.177 51.6909C16.177 55.2845 13.2533 58.2082 9.65971 58.2082ZM21.7561 34.7581H38.9444V39.0472H21.7561V34.7581ZM21.7561 28.3214H38.9444V32.6152H21.7561V28.3214ZM62.8634 15.4479H64.7256V19.7418H47.5369V15.4479H62.8634ZM44.6037 13.3051V9.01122H46.4654H61.792V13.3051H46.4654H44.6037ZM47.5369 2.57451H64.7256V6.86836H62.8634H47.5369V2.57451ZM64.7256 26.1785H47.5369V21.8846H64.7256V26.1785ZM50.47 41.1948H61.792V48.6279H56.4584H50.47V41.1948ZM64 60.3511H71.3569V58.2082H57.5299V50.7708H62.8634H71.3569V48.6279H63.9349V41.1948H65.797C65.8133 41.1948 65.8283 41.1909 65.8446 41.1901H71.3569V39.8242C71.3569 39.5405 71.329 39.2868 71.2887 39.0472H66.8684V36.4719C66.1399 36.5576 65.3281 36.7998 64.7256 37.3826V39.0472H63.8989C63.8989 39.0489 63.8984 39.0502 63.898 39.0519C63.8654 39.2465 63.8444 39.4544 63.8384 39.6785C63.67 39.3065 63.298 39.0472 62.8634 39.0472H53.7417H49.3986H47.5369V34.7581H54.8294C55.1766 34.0046 55.5974 33.2872 56.086 32.6152H47.5369V28.3214H61.3094C62.9946 27.5221 64.876 27.0305 66.8684 26.9345V20.8132V14.3765C66.8684 13.7846 66.3889 13.3051 65.797 13.3051H63.9349V9.01122H65.797C66.3889 9.01122 66.8684 8.53122 66.8684 7.93979V1.50308C66.8684 0.911224 66.3889 0.431652 65.797 0.431652H46.4654C45.8736 0.431652 45.394 0.911224 45.394 1.50308V6.86836H43.5323C42.9404 6.86836 42.4609 7.34794 42.4609 7.93979V14.3765C42.4609 14.9679 42.9404 15.4479 43.5323 15.4479H45.394V20.8132V27.2499V33.6866V39.0472H41.0873V33.6866V27.2499C41.0873 26.6581 40.6077 26.1785 40.0159 26.1785H20.6847C20.0929 26.1785 19.6133 26.6581 19.6133 27.2499V33.6866V39.0472H18.0481C17.4563 39.0472 16.9767 39.5268 16.9767 40.1186V43.0449C15.7159 43.0839 14.5244 43.3938 13.4539 43.9184C12.3066 43.3556 11.0217 43.0308 9.65971 43.0308C4.88457 43.0308 1 46.9158 1 51.6909C1 56.4665 4.88457 60.3511 9.65971 60.3511C10.1629 60.3511 10.6527 60.2988 11.1323 60.2165C11.2849 60.2996 11.4571 60.3511 11.6427 60.3511H17.2484H42.9936H53.7143H56.4584H64Z" fill="#191919"/>
<path d="M94.2142 39.0472H81.4458C81.4625 39.3048 81.4732 39.5632 81.4732 39.8242V41.1901H93.1428V48.6275H87.8088H81.4732V50.7704H86.7374V58.2082H81.4732V60.3511H87.8088C88.4006 60.3511 88.8802 59.8715 88.8802 59.2796V50.7704H94.2142C94.8061 50.7704 95.2856 50.2908 95.2856 49.6989V40.1187C95.2856 39.5268 94.8061 39.0472 94.2142 39.0472Z" fill="#191919"/>
<path d="M68.5833 79.9293C67.7801 79.9293 67.1266 79.2758 67.1266 78.473C67.1266 77.6703 67.7801 77.0168 68.5833 77.0168C69.3864 77.0168 70.04 77.6703 70.04 78.473C70.04 79.2758 69.3864 79.9293 68.5833 79.9293ZM68.5833 74.474C66.3779 74.474 64.583 76.2676 64.583 78.473C64.583 80.2306 65.7316 81.7105 67.3117 82.2453V85.4699C67.3117 86.1715 67.8809 86.7415 68.5833 86.7415C69.2861 86.7415 69.8553 86.1715 69.8553 85.4699V82.2453C71.4354 81.7105 72.5836 80.2306 72.5836 78.473C72.5836 76.2676 70.7887 74.474 68.5833 74.474Z" fill="#191919"/>
<path d="M85.054 68.5899V93.8571H51.5882V68.5899H54.7857H62.9286H72.4283H80.4023H85.054ZM55.8572 60.7046H61.8572V66.447H55.8572V60.7046ZM67.594 34.2857C65.1105 34.2857 62.2472 35.4909 61.7599 38.8007H55.9099C56.4735 33.3433 61.4985 29.0597 67.594 29.0597C74.0655 29.0597 79.3309 33.8889 79.3309 39.8246V66.447H73.4997V39.8246C73.4997 35.7364 70.318 34.2857 67.594 34.2857ZM81.4738 50.7707V48.6279V41.19V39.8246C81.4738 39.5631 81.4626 39.3047 81.4459 39.0471C81.0122 32.2907 74.9663 26.9169 67.594 26.9169C67.3506 26.9169 67.1089 26.9229 66.8685 26.9349C64.876 27.0304 62.9946 27.522 61.3099 28.3217C59.203 29.3212 57.4026 30.8036 56.086 32.6156C55.5979 33.2872 55.1766 34.0046 54.8299 34.7584C54.2166 36.0887 53.839 37.5334 53.7417 39.0471H62.8639C63.298 39.0471 63.67 39.3069 63.8385 39.6784C63.8449 39.4547 63.8659 39.2469 63.8985 39.0523C63.8989 39.0506 63.8993 39.0489 63.8993 39.0471C64.0249 38.307 64.327 37.7687 64.7256 37.383C65.3286 36.8001 66.1399 36.5576 66.8685 36.4719C67.1252 36.4419 67.372 36.4286 67.594 36.4286C68.8643 36.4286 70.9065 36.7959 71.2887 39.0471C71.3295 39.2867 71.3569 39.5404 71.3569 39.8246V41.19V48.6279V50.7707V58.2081V60.351V66.447H64V60.351H56.4585H53.7143V66.447H50.5167C49.9249 66.447 49.4453 66.9266 49.4453 67.5184V94.9286C49.4453 95.5204 49.9249 96 50.5167 96H86.1255C86.7173 96 87.1969 95.5204 87.1969 94.9286V67.5184C87.1969 66.9266 86.7173 66.447 86.1255 66.447H81.4738V60.351V58.2081V50.7707Z" fill="#DA291C"/>
</svg>
